<svg width="24" height="24" viewBox="0 0 24 24" fill="none" xmlns="http://www.w3.org/2000/svg">
<path d="M0.837987 14.304C1.1752 14.7088 1.59717 15.0347 2.07411 15.2586C2.55105 15.4825 3.07133 15.5991 3.59823 15.6H9.0707L8.39864 17.316C8.1191 18.0673 8.02601 18.8752 8.12734 19.6705C8.22868 20.4657 8.52143 21.2244 8.98047 21.8817C9.43951 22.5389 10.0512 23.075 10.7629 23.4439C11.4747 23.8129 12.2653 24.0037 13.067 23.9999C13.2979 23.9995 13.5237 23.9324 13.7174 23.8068C13.9111 23.6813 14.0645 23.5025 14.1591 23.2919L17.5794 15.6H20.3997C21.3545 15.6 22.2703 15.2207 22.9455 14.5456C23.6207 13.8704 24 12.9547 24 12L24 3.59999C24 2.64521 23.6207 1.72954 22.9455 1.05441C22.2703 0.379282 21.3545 -1.1443e-06 20.3997 -1.1443e-06L5.12236 -1.1443e-06C4.28011 0.00027954 3.46462 0.295809 2.81777 0.835169C2.17092 1.37453 1.73365 2.12358 1.58205 2.95199L0.0579172 11.352C-0.0363513 11.8711 -0.0153413 12.4046 0.11946 12.9148C0.254261 13.4249 0.499559 13.8991 0.837987 14.304ZM17.9995 2.39999H20.3997C20.718 2.39999 21.0232 2.52642 21.2483 2.75146C21.4734 2.97651 21.5998 3.28173 21.5998 3.59999L21.5998 12C21.5998 12.3182 21.4734 12.6235 21.2483 12.8485C21.0232 13.0735 20.718 13.2 20.3997 13.2H17.9995L17.9995 2.39999ZM2.39812 11.784L3.92225 3.38399C3.97337 3.10444 4.12206 2.85211 4.34182 2.67191C4.56159 2.49172 4.83819 2.39536 5.12236 2.39999L15.5993 2.39999V14.148L12.335 21.492C11.999 21.394 11.6869 21.2275 11.4185 21.0029C11.1501 20.7782 10.9312 20.5004 10.7756 20.187C10.62 19.8735 10.531 19.5312 10.5144 19.1816C10.4977 18.832 10.5537 18.4828 10.6788 18.156L11.3149 16.44C11.4504 16.0773 11.4962 15.6871 11.4483 15.3029C11.4003 14.9187 11.2601 14.5518 11.0397 14.2335C10.8192 13.9152 10.525 13.6549 10.1821 13.475C9.83925 13.295 9.45793 13.2006 9.0707 13.2H3.59823C3.42192 13.2003 3.24771 13.1617 3.088 13.087C2.92828 13.0124 2.78698 12.9034 2.67415 12.768C2.55854 12.6344 2.47385 12.4769 2.42614 12.3068C2.37842 12.1367 2.36886 11.9582 2.39812 11.784Z" fill="black"/>
</svg>
