<svg width="207" height="189" viewBox="0 0 207 189" fill="none" xmlns="http://www.w3.org/2000/svg">
<path fill-rule="evenodd" clip-rule="evenodd" d="M93.3693 2.12922C84.1133 5.06122 30.2643 21.2542 25.1193 22.6532C22.5063 23.3642 21.3693 24.2342 21.3693 25.5212C21.3693 26.5382 23.5923 36.7582 26.3103 48.2332C32.7253 75.3202 32.5003 73.1602 28.8693 72.7912C27.2193 72.6232 22.1063 71.5862 17.5073 70.4862C12.9083 69.3872 8.90228 68.7302 8.60528 69.0272C8.30728 69.3242 8.86628 72.5282 9.84628 76.1472L11.6273 82.7272L9.24828 84.3922C4.34128 87.8262 -0.690724 92.9362 0.0782756 93.7052C1.37628 95.0032 19.3693 99.5322 19.3693 98.5612C19.3693 98.0722 20.2983 95.1882 21.4343 92.1532C23.4063 86.8802 23.7253 86.5682 28.6153 85.1162C34.8903 83.2522 35.3693 83.2432 35.3693 84.9792C35.3693 85.7402 34.3563 86.6802 33.1193 87.0672C31.1043 87.6992 31.2873 87.9042 34.8693 89.0372C37.0693 89.7322 40.5573 90.6132 42.6193 90.9942C47.3863 91.8742 47.3863 91.8572 42.9333 73.9282C36.2343 46.9562 33.2763 34.3562 33.5723 34.0592C33.8483 33.7842 42.6783 31.1342 86.4283 18.1972C94.9853 15.6662 102.74 13.5962 103.66 13.5962C104.58 13.5962 119.854 17.9222 137.601 23.2102C155.348 28.4982 170.656 33.0512 171.619 33.3272C172.582 33.6032 173.369 34.6762 173.369 35.7102C173.369 36.7452 170.67 48.7302 167.372 62.3442C164.073 75.9572 161.139 88.1092 160.853 89.3462C160.228 92.0392 160.59 92.0652 169.058 89.9382C174.632 88.5382 175.402 88.0932 174.013 87.0782C171.824 85.4772 171.898 83.3212 174.119 83.9812C175.082 84.2672 177.219 84.8092 178.869 85.1862C183.152 86.1652 184.054 87.1322 185.918 92.7442C186.831 95.4912 188.227 97.9882 189.021 98.2932C190.582 98.8922 206.141 94.7742 206.889 93.5642C207.375 92.7772 199.98 85.5972 196.917 83.8832C195.136 82.8862 195.135 82.6402 196.875 76.2102C197.864 72.5572 198.431 69.3242 198.133 69.0272C197.836 68.7302 193.605 69.4212 188.731 70.5632C183.857 71.7042 178.857 72.8622 177.619 73.1362C176.381 73.4102 175.369 73.2082 175.369 72.6872C175.369 71.6082 180.25 50.1542 183.999 34.7532C185.384 29.0652 186.371 24.2842 186.193 24.1302C185.091 23.1782 107.215 0.22622 104.369 0.0142196C102.444 -0.12878 97.4943 0.823221 93.3693 2.12922ZM88.6493 35.5472C79.0343 39.0082 73.9773 42.0552 67.8193 48.0962C57.1743 58.5402 52.3693 69.9622 52.3693 84.8242C52.3693 92.6822 52.3653 92.6742 56.1193 92.5772C56.5313 92.5662 56.8693 91.6962 56.8693 90.6442C56.8693 89.5912 60.2883 84.7492 64.4663 79.8822L72.0643 71.0342L71.5883 62.8152C71.3263 58.2952 70.7203 54.5962 70.2413 54.5962C67.0443 54.5962 74.0093 47.3922 80.6343 43.8462C85.3363 41.3292 87.5333 40.9762 86.8503 42.8462C86.5733 43.6062 89.7753 45.8952 95.0213 48.6852L103.648 53.2752L111.984 48.6852C118.613 45.0362 120.206 43.7282 119.762 42.2982C119.239 40.6132 119.427 40.5942 122.775 41.9922C127.097 43.7982 134.173 48.5892 136.755 51.4592C138.459 53.3522 138.484 53.6152 137.005 54.1822C135.678 54.6912 135.369 56.3292 135.369 62.8542V70.8982L142.869 80.1282C146.994 85.2042 150.369 90.3112 150.369 91.4772C150.369 94.0382 151.637 94.1862 153.932 91.8912C155.366 90.4572 155.544 88.9042 155.053 82.1412C153.444 59.9672 139.447 42.1332 118.514 35.5842C110.029 32.9302 95.9693 32.9122 88.6493 35.5472ZM95.3373 72.9912L86.8693 79.0962L89.6823 87.8462L92.4953 96.5962H104.307H116.119L116.683 93.8462C116.993 92.3332 117.882 88.3962 118.658 85.0962L120.069 79.0962L111.937 72.9912L103.806 66.8872L95.3373 72.9912ZM24.6713 92.8462C22.9783 96.5872 18.1453 113.706 18.6433 114.203C19.7843 115.344 43.6923 120.753 56.1463 122.688C75.9173 125.759 116.897 126.473 138.733 124.126C154.462 122.436 171.767 119.28 182.638 116.12C186.744 114.927 188.369 113.967 188.369 112.735C188.369 110.17 182.466 91.7742 181.439 91.1392C180.951 90.8372 176.766 91.4892 172.14 92.5882C149.758 97.9032 138.694 98.9632 104.869 99.0312C70.3943 99.1012 59.5633 98.1412 37.1913 93.0342C31.3183 91.6932 26.3283 90.5962 26.1023 90.5962C25.8753 90.5962 25.2323 91.6092 24.6713 92.8462ZM45.6543 128.687C46.2873 133.401 44.8623 131.886 89.6953 175.508L103.479 188.919L108.674 183.954C111.531 181.224 120.394 172.671 128.369 164.947C136.344 157.224 146.978 146.987 152 142.198C159.823 134.737 161.224 132.907 161.783 129.41C162.142 127.165 162.248 125.142 162.019 124.913C161.79 124.684 159.337 124.797 156.568 125.164C152.09 125.758 150.776 126.565 144.682 132.464C140.914 136.112 130.254 146.43 120.993 155.394C111.732 164.357 103.807 171.557 103.381 171.394C102.955 171.23 92.3853 161.196 79.8913 149.096C67.3983 136.996 56.6573 126.801 56.0223 126.441C55.3883 126.081 52.6643 125.457 49.9693 125.055L45.0693 124.324L45.6543 128.687ZM77.3693 129.151C77.3693 130.157 87.7693 134.314 93.1683 135.466C104.317 137.844 116.445 136.241 126.145 131.108L130.869 128.608L123.124 128.756C118.495 128.844 113.086 129.677 109.681 130.827C104.01 132.741 103.952 132.74 97.6553 130.673C91.8413 128.765 77.3693 127.679 77.3693 129.151ZM101.869 146.596C101.463 147.874 100.356 148.596 98.8023 148.596C96.0023 148.596 95.6743 149.775 97.9493 151.663C98.8873 152.441 99.3463 153.935 99.0783 155.336C98.6703 157.47 98.8993 157.639 101.439 157.081C102.986 156.741 105.223 156.982 106.409 157.617C108.438 158.703 108.528 158.597 107.923 155.843C107.476 153.805 107.749 152.525 108.825 151.633C111.065 149.773 110.721 148.596 107.936 148.596C106.382 148.596 105.275 147.874 104.869 146.596C104.52 145.496 103.845 144.596 103.369 144.596C102.893 144.596 102.218 145.496 101.869 146.596Z" fill="black"/>
</svg>
